<svg width="200" height="61" viewBox="0 0 200 61" fill="none" xmlns="http://www.w3.org/2000/svg">
<g clip-path="url(#clip0_6171_16095)">
<path d="M96.4143 17.1567C97.7531 14.9837 98.8759 13.0823 100.063 11.2135C102.18 7.87788 105.591 6.91087 109.435 8.51891C113.397 10.1704 114.325 12.0936 113.343 16.5917C113.138 17.5587 112.955 18.5257 113.321 19.71C114.834 16.6352 116.334 13.5603 117.878 10.5072C119.184 7.92132 122.175 7.07384 125.737 8.31249C128.502 9.27951 130.132 11.0179 129.301 14.234C128.772 16.2875 128.296 18.3519 128.383 20.7205C128.846 19.8622 129.398 19.0364 129.754 18.1346C131.201 14.4622 132.756 10.8115 133.954 7.05211C134.85 4.25977 136.146 3.09719 139.277 3.48834C144.049 4.08592 146.326 6.90001 145.117 11.4743C144.491 13.8537 143.897 16.244 143.973 18.9603C144.718 17.6022 145.517 16.2766 146.186 14.8859C147.212 12.7455 148.195 10.5941 149.112 8.39938C151.488 2.73863 152.232 3.69478 157.836 4.7813C161.388 5.4658 162.899 8.81229 162.176 12.7781C161.56 16.2005 161.01 19.6339 160.427 23.0674L161.377 23.4259C162.37 21.2746 163.439 19.1559 164.335 16.972C164.929 15.5161 165.221 13.9297 165.738 12.4412C168.168 5.53098 168.168 5.62879 175.304 6.90002C176.232 7.063 177.96 5.93299 178.382 4.97686C179.374 2.71691 180.714 2.26058 182.905 2.87989C187.202 4.08593 191.564 5.0638 195.85 6.32416C198.646 7.14992 200.169 9.31208 199.985 12.213C199.812 14.8968 199.024 17.537 198.711 20.2207C197.977 26.6203 197.35 33.0199 196.692 39.4303C196.627 40.104 196.735 40.8102 196.595 41.4621C196.044 43.9393 196.185 46.9272 193.119 47.8834C190.808 48.6005 186.63 45.6887 185.475 42.8529C185.269 42.3531 185.118 41.8424 184.557 40.2235C183.337 43.4938 182.484 45.8516 181.566 48.1876C179.471 53.5333 177.906 54.1417 172.692 51.8926C171.839 51.5232 170.338 51.1103 169.906 51.5341C166.743 54.609 163.935 52.751 161.053 51.1756C160.675 50.9691 160.243 50.8604 159.865 50.7192C154.014 58.3683 147.363 55.3152 144.804 46.7751C143.261 49.8174 141.921 52.5011 140.539 55.1739C137.182 61.7039 132.756 62.1493 128.069 56.4235C127.584 55.8367 127.077 55.2718 126.558 54.6742C120.911 61.3888 113.71 56.9666 111.368 48.6114C110.115 50.8604 109.111 52.4903 108.269 54.2069C106.984 56.8471 105.386 58.8572 102.039 58.0749C98.5412 57.2492 95.5073 53.9896 95.3885 50.8496C95.3346 49.4263 95.3886 48.003 94.9135 46.4166C93.5208 49.2958 92.2037 52.2186 90.7245 55.0544C87.4963 61.2584 84.6569 61.8778 79.0535 57.9663C78.0925 57.2927 76.4839 56.9776 75.3503 57.2383C71.6686 58.0749 69.0775 56.619 66.7239 53.9896C66.0329 53.2074 64.6401 52.2186 63.9168 52.4468C59.6737 53.794 57.007 51.8057 54.7506 48.6114C54.3726 48.0681 53.9516 47.5575 53.1959 46.5796C52.1162 48.7743 51.1877 50.6215 50.2808 52.4794C47.884 57.423 44.753 58.4118 40.2616 55.3152C38.2535 53.9353 36.5477 53.1965 33.8917 53.5767C28.7742 54.3048 25.3517 50.1325 26.129 44.9281C26.3558 43.407 26.5069 41.8641 26.0426 40.0279C25.1897 41.3969 24.2504 42.7116 23.4947 44.1349C20.72 49.3936 18.1936 49.9912 13.4215 46.3406C12.4498 45.5909 11.6185 44.6674 10.5605 43.6678C9.89107 43.9393 8.96257 44.7108 8.30399 44.5261C5.59406 43.7547 2.67901 43.1028 0.465724 41.5164C-0.376403 40.908 0.0878469 37.8331 0.57369 36.0513C2.58184 28.6412 4.80592 21.2963 6.98681 13.9406C7.55903 11.9958 8.15283 10.04 8.93018 8.17122C10.8196 3.65132 13.9506 2.71691 18.0748 5.28108C19.2192 5.98732 20.4825 6.49801 21.6269 7.20424C23.9914 8.66018 26.3234 10.1921 29.0656 11.9414C32.4234 7.13903 37.4438 6.63923 42.8204 10.4095C45.4224 8.30158 44.6235 3.23843 49.5682 4.08591C52.9368 4.67263 56.0462 5.30283 57.007 8.96439C59.2959 6.68271 61.2284 3.27104 63.8844 2.54308C66.5079 1.82598 69.8764 3.80345 73.4825 4.75958C73.4393 4.81391 74.1195 4.19457 74.4433 3.41228C75.4906 0.913289 77.326 0.0115072 79.8632 0.587361C82.6379 1.20668 85.3371 1.89115 86.1468 5.34627C86.3627 6.23722 87.4316 7.38893 88.306 7.59537C95.8852 9.38813 95.9068 9.33382 96.4143 17.1459V17.1567Z" fill="#00CEB3"/>
</g>
<defs>
<clipPath id="clip0_6171_16095">
<rect width="200" height="60" fill="white" transform="translate(0 0.419922)"/>
</clipPath>
</defs>
</svg>
